<?xml version="1.0" encoding="UTF-8"?> <!-- Generator: Adobe Illustrator 23.0.5, SVG Export Plug-In . SVG Version: 6.00 Build 0) --> <svg xmlns="http://www.w3.org/2000/svg" xmlns:xlink="http://www.w3.org/1999/xlink" id="Слой_1" x="0px" y="0px" viewBox="0 0 1309.8 582.9" style="enable-background:new 0 0 1309.8 582.9;" xml:space="preserve"> <style type="text/css"> .st0{clip-path:url(#SVGID_2_);} .st1{fill:#1B1B1B;stroke:#FFFFFF;stroke-width:0.4;} .st2{fill:#1B1B1B;} </style> <g> <defs> <rect id="SVGID_1_" x="538.8" y="205.2" width="357.6" height="358.1"></rect> </defs> <clipPath id="SVGID_2_"> <use xlink:href="#SVGID_1_" style="overflow:visible;"></use> </clipPath> <g class="st0"> <path class="st1" d="M718,207.1c7.7,0,15.3,0.5,22.7,1.4c-52,45.9-94.3,102.2-124.3,165.7c-15.8-32.3-28.2-66.2-36.8-101.4 C612.4,232.8,662.2,207.1,718,207.1z"></path> <path class="st1" d="M746.2,209.4c61.7,9.8,112.9,51.2,136.3,107.2c-65.8-22-135.9-30.5-205.9-24.6 C696.7,262.1,720,234.4,746.2,209.4z"></path> <path class="st1" d="M576.2,277.2c7.6,37.2,19.3,73.4,34.9,108l-0.1,0.2l0.4,0.7l0.5,0.9c12.8,28,28.1,55,45.9,80.5 c-35.9-2.5-71.6-8.8-106.4-18.9c-7.5-19.7-11.7-41.1-11.7-63.5C539.7,344.6,553.3,307.2,576.2,277.2z"></path> <path class="st1" d="M859.8,493.1c-13.9-67.9-41.5-132.7-81.6-190.3c35.9,2.5,71.6,8.8,106.4,18.9c7.5,19.7,11.7,41.1,11.7,63.4 C896.3,425.7,882.7,463.1,859.8,493.1z"></path> <path class="st1" d="M553.5,453.8c35.9,12,73.1,20,110.9,23.8l0.2,0.4h0.8h2.9c30.1,2.8,60.6,3,91.1,0.4 c-20.1,29.8-43.4,57.5-69.6,82.6C628,551.1,576.9,509.7,553.5,453.8z"></path> <path class="st1" d="M695.3,561.7c28.3-25,53.8-53.1,75.9-83.8h0.2l0.4-0.7l0.6-1.1c18-25.1,33.7-51.9,47.1-80.2 c15.8,32.3,28.2,66.2,36.8,101.4c-32.7,40.1-82.5,65.7-138.3,65.7C710.3,563.1,702.7,562.6,695.3,561.7z"></path> </g> </g> <path class="st2" d="M56.2,263.1c12.9,0,23.9,4.6,33.1,13.7c9.2,9.1,13.9,20.1,13.9,33.1c0,13-6.7,25.1-20,36.4 c11.8,2.4,22.8,9.3,33.2,20.8c16.8,16.9,25.2,37.3,25.2,61.2c0,23.8-8.4,44.4-25.2,61.9c-15.6,16.2-34.3,24.4-56,24.7v0.2H11.5 V263.1H56.2z M25.7,356.7v144h34.6v0.2c17.5-1.2,32.6-8.3,45.3-21.6c14-14.4,20.9-31.4,20.9-51.2c0-19.7-7-36.6-20.9-50.5 c-14-14-30.8-20.9-50.5-20.9H25.7z M25.7,277.2v64.4h34.2c7.9-0.7,14.6-3.7,20.1-8.8c6.4-5.9,9.6-13.5,9.6-23 c0-9.4-3.2-17.2-9.6-23.3c-6.4-6.2-14.3-9.3-23.8-9.3H25.7z M336.9,259.4c35.7,0,66.1,12.6,91.3,37.9c25.3,25.2,37.9,55.6,37.9,91.3 s-12.6,66.2-37.9,91.4c-25.2,25.2-55.6,37.8-91.3,37.8c-35.7,0-66.2-12.6-91.4-37.8c-25.2-25.3-37.8-55.8-37.8-91.4 s12.6-66.1,37.8-91.3C270.7,272.1,301.2,259.4,336.9,259.4z M336.9,273.9c-31.7,0-58.8,11.2-81.2,33.7 c-22.4,22.4-33.5,49.4-33.5,81.1c0,31.7,11.2,58.8,33.5,81.2c22.5,22.5,49.5,33.7,81.2,33.7c31.7,0,58.7-11.2,81.1-33.7 c22.5-22.5,33.7-49.5,33.7-81.2c0-31.7-11.2-58.7-33.7-81.1C395.6,285.2,368.6,273.9,336.9,273.9z"></path> <path class="st2" d="M617.1,19.2V138H610V19.2h-31.9v-7.1H649v7.1H617.1z M687.9,81.6V138h-7.1V12.1h7.1v62.4h52.7V12.1h7.1V138 h-7.1V81.6H687.9z M850.4,12.1v7.1h-55.9v52.3h55.9v7.1h-55.9v52.3h55.9v7.1h-63V12.1H850.4z"></path> <path class="st2" d="M1033.6,277.2v237.7h-14.2V277.2h-63.7v-14.2h141.7v14.2H1033.6z M1175.3,402.1v112.9h-14.2V263.1h14.2v124.8 h105.5V263.1h14.2v251.8h-14.2V402.1H1175.3z"></path> </svg> 